<?xml version="1.0" encoding="utf-8"?>
<!-- Generator: Adobe Illustrator 16.0.0, SVG Export Plug-In . SVG Version: 6.00 Build 0)  -->
<!DOCTYPE svg PUBLIC "-//W3C//DTD SVG 1.0//EN" "http://www.w3.org/TR/2001/REC-SVG-20010904/DTD/svg10.dtd">
<svg version="1.0" id="Layer_1" xmlns="http://www.w3.org/2000/svg" xmlns:xlink="http://www.w3.org/1999/xlink" x="0px" y="0px"
	 width="100px" height="100px" viewBox="0 0 100 100" enable-background="new 0 0 100 100" xml:space="preserve">
<path fill="#FFF8E1" d="M49.999,83.334c-10.013,0-17.893-1.746-21.666-3.336c3.772-1.586,11.653-3.332,21.666-3.332
	c10.012,0,17.897,1.746,21.666,3.332C67.896,81.588,60.011,83.334,49.999,83.334z"/>
<path fill="#FFEBB2" d="M49.999,80.133c-6.604,0-12.271-0.76-16.453-1.732c-2.158,0.502-3.929,1.059-5.213,1.598
	c3.772,1.59,11.653,3.336,21.666,3.336c10.012,0,17.897-1.746,21.666-3.336c-1.283-0.539-3.054-1.096-5.211-1.598
	C62.271,79.373,56.604,80.133,49.999,80.133z"/>
<path fill="#FFC00E" d="M86.293,20.17c-2.67-0.709-5.41,0.873-6.126,3.539c-0.547,2.057,0.271,4.152,1.891,5.333l-8.889,23.497
	c-1.445-0.313-2.891-0.625-4.343-0.879l2.133-28.422c1.968-0.387,3.596-1.94,3.961-4.034c0.481-2.718-1.334-5.313-4.056-5.791
	c-2.716-0.481-5.313,1.335-5.788,4.056c-0.372,2.095,0.623,4.108,2.341,5.145l-7.83,27.83c-1.581-0.136-3.155-0.253-4.745-0.322
	l-3.043-30.459c1.87-0.724,3.199-2.535,3.199-4.66c0-2.761-2.238-5-5-5c-2.757,0-4.999,2.239-4.999,5c0,2.125,1.331,3.936,3.2,4.66
	l-3.043,30.459c-1.582,0.072-3.164,0.187-4.743,0.325l-7.831-27.831c1.716-1.036,2.712-3.05,2.346-5.146
	c-0.481-2.721-3.073-4.538-5.794-4.056c-2.715,0.479-4.538,3.073-4.056,5.791c0.371,2.092,1.993,3.645,3.96,4.033l2.133,28.431
	c-1.452,0.252-2.894,0.564-4.339,0.877L17.945,29.04c1.62-1.182,2.437-3.276,1.886-5.331c-0.713-2.666-3.457-4.248-6.123-3.539
	c-2.666,0.716-4.251,3.46-3.535,6.126c0.549,2.055,2.303,3.46,4.297,3.674L20,63.775v16.223c0,5.521,13.434,10,29.999,10
	c16.569,0,30-4.479,30-10V63.787l5.533-33.816c1.993-0.214,3.745-1.62,4.297-3.674C90.543,23.631,88.956,20.887,86.293,20.17z
	 M49.999,83.334c-10.013,0-17.893-1.746-21.666-3.336c3.772-1.586,11.653-3.332,21.666-3.332c10.012,0,17.897,1.746,21.666,3.332
	C67.896,81.588,60.011,83.334,49.999,83.334z M73.422,62.709l-0.058,11.023C67.865,71.457,59.443,70,49.999,70
	c-9.425,0-17.832,1.451-23.332,3.717v-9.941l-0.688-4.277c16.123-3.83,32.514-3.662,47.971-0.006L73.422,62.709z"/>
<path fill="#FFF8E1" d="M26.667,73.717C32.167,71.451,40.574,70,49.999,70c9.445,0,17.867,1.457,23.366,3.732l0.058-11.023
	l0.528-3.217c-15.457-3.656-31.849-3.824-47.971,0.006l0.688,4.277V73.717z"/>
<path fill="#FFEBB2" d="M49.999,66c-6.662,0-13.528,0.729-19.332,2.236v-4.779l-0.771-4.799c-1.307,0.258-2.612,0.531-3.916,0.84
	l0.688,4.277v9.941C32.167,71.451,40.574,70,49.999,70c9.445,0,17.867,1.457,23.366,3.732l0.022-4.248
	C66.904,67.127,58.294,66,49.999,66z"/>
<path fill="#F68E1E" d="M30.872,23.26c-0.626,0.11-1.245,0.094-1.834-0.023l0.305,4.069c0.217,0.016,0.435,0.03,0.656,0.03
	c0.522,0,1.049-0.046,1.567-0.137c0.749-0.132,1.454-0.363,2.119-0.662l-1.104-3.922C32.069,22.924,31.496,23.149,30.872,23.26z"/>
<path fill="#F68E1E" d="M16.295,29.832c-0.613,0.165-1.23,0.203-1.826,0.139l0.658,4.025c0.743-0.011,1.484-0.107,2.201-0.3
	c0.729-0.195,1.415-0.484,2.058-0.842l-1.442-3.813C17.461,29.393,16.909,29.668,16.295,29.832z"/>
<path fill="#F68E1E" d="M83.701,29.832c-0.61-0.164-1.161-0.438-1.644-0.79l-1.445,3.819c0.635,0.354,1.32,0.638,2.053,0.834
	c0.723,0.193,1.465,0.289,2.206,0.3l0.66-4.025C84.934,30.035,84.317,29.997,83.701,29.832z"/>
<path fill="#F68E1E" d="M49.999,20.001c-0.634,0-1.24-0.124-1.799-0.34l-0.405,4.056c0.707,0.179,1.443,0.284,2.204,0.284
	c0.762,0,1.499-0.105,2.205-0.284l-0.404-4.055C51.239,19.877,50.635,20.001,49.999,20.001z"/>
<path fill="#F68E1E" d="M69.133,23.26c-0.627-0.11-1.203-0.337-1.717-0.646l-1.104,3.925c0.672,0.3,1.381,0.53,2.126,0.661
	c0.516,0.091,1.043,0.137,1.564,0.137c0.001,0,0,0,0.002,0c0.219,0,0.434-0.015,0.648-0.03l0.306-4.068
	C70.372,23.354,69.756,23.369,69.133,23.26z"/>
</svg>
